<?xml version="1.0" encoding="utf-8"?>
<!-- Generator: Adobe Illustrator 24.1.2, SVG Export Plug-In . SVG Version: 6.00 Build 0)  -->
<svg version="1.1" id="Capa_1" xmlns="http://www.w3.org/2000/svg" xmlns:xlink="http://www.w3.org/1999/xlink" x="0px" y="0px"
	 viewBox="0 0 600 600" style="enable-background:new 0 0 600 600;" xml:space="preserve">
<style type="text/css">
	.st0{display:none;fill:#FFFFFF;}
	.st1{fill:#FFFFFF;}
	.st2{font-family:'ArialMT';}
	.st3{font-size:414.2497px;}
</style>
<g>
	<circle cx="299.6" cy="300" r="297"/>
	<path class="st0" d="M444.2,179.4c-1.1-3.3-2.5-4.2-4.6-5c-4.6-1.8-12.5,0.9-12.5,0.9S149.6,275,133.7,286
		c-3.4,2.4-4.6,3.8-5.1,5.4c-2.7,7.9,5.8,11.3,5.8,11.3l71.5,23.3c0,0,2.7,0.4,3.6-0.2c16.3-10.3,163.8-103.4,172.3-106.5
		c1.3-0.4,2.3,0.1,2.1,1c-3.4,11.9-131.5,125.8-131.5,125.8s-0.5,0.6-0.8,1.3l-0.2-0.1l-6.7,71c0,0-2.8,21.7,18.9,0
		c15.3-15.3,30.2-28.2,37.6-34.4c24.6,17,51.1,35.8,62.5,45.6c5.7,4.9,10.5,5.7,14.5,5.6c10.9-0.4,13.9-12.3,13.9-12.3
		s50.6-203.6,52.3-230.9c0.2-2.7,0.4-4.4,0.4-6.2C444.9,183.1,444.6,180.6,444.2,179.4z"/>
</g>
<text transform="matrix(1.001 0 0 1 86 382.4902)" class="st1 st2 st3">@</text>
</svg>
