<?xml version="1.0" encoding="utf-8"?>
<!-- Generator: Adobe Illustrator 24.1.2, SVG Export Plug-In . SVG Version: 6.00 Build 0)  -->
<svg version="1.1" id="Capa_1" xmlns="http://www.w3.org/2000/svg" xmlns:xlink="http://www.w3.org/1999/xlink" x="0px" y="0px"
	 viewBox="0 0 600 600" style="enable-background:new 0 0 600 600;" xml:space="preserve">
<style type="text/css">
	.st0{fill-rule:evenodd;clip-rule:evenodd;fill:#FFFFFF;}
</style>
<g>
	<circle cx="299.32" cy="299.68" r="297.68"/>
	<g>
		<g id="WA_Logo_10_">
			<g>
				<path class="st0" d="M442.51,160.15c-35.65-35.68-83.07-55.34-133.58-55.36c-104.09,0-188.8,84.68-188.84,188.77
					c-0.01,33.27,8.68,65.75,25.21,94.38l-26.79,97.83l100.11-26.25c27.58,15.04,58.64,22.96,90.24,22.98h0.08c0.01,0-0.01,0,0,0
					c104.08,0,188.8-84.69,188.84-188.78C497.79,243.26,478.17,195.83,442.51,160.15z M308.93,450.6h-0.06
					c-28.16-0.01-55.79-7.57-79.89-21.87l-5.73-3.4l-59.41,15.58L179.7,383l-3.73-5.94c-15.71-24.98-24.01-53.86-24-83.5
					c0.03-86.51,70.45-156.9,157.02-156.9c41.92,0.02,81.33,16.36,110.97,46.02c29.63,29.66,45.94,69.08,45.93,111.01
					C465.85,380.21,395.44,450.6,308.93,450.6z M395.03,333.08c-4.72-2.36-27.92-13.77-32.24-15.35c-4.33-1.57-7.47-2.36-10.62,2.36
					c-3.15,4.72-12.19,15.35-14.94,18.49c-2.75,3.15-5.5,3.54-10.22,1.18c-4.72-2.36-19.92-7.34-37.94-23.41
					c-14.03-12.51-23.5-27.96-26.25-32.68c-2.75-4.72-0.29-7.28,2.07-9.63c2.12-2.11,4.72-5.51,7.08-8.26
					c2.36-2.75,3.15-4.72,4.72-7.87c1.57-3.15,0.79-5.9-0.39-8.26c-1.18-2.36-10.62-25.58-14.55-35.02
					c-3.83-9.2-7.72-7.95-10.62-8.1c-2.75-0.14-5.9-0.17-9.04-0.17c-3.15,0-8.26,1.18-12.58,5.9c-4.32,4.72-16.51,16.13-16.51,39.35
					c0,23.22,16.91,45.65,19.27,48.8c2.36,3.15,33.27,50.79,80.6,71.22c11.26,4.86,20.05,7.76,26.9,9.94
					c11.3,3.59,21.59,3.08,29.72,1.87c9.07-1.35,27.92-11.41,31.85-22.43c3.93-11.02,3.93-20.46,2.75-22.43
					C402.89,336.63,399.75,335.45,395.03,333.08z"/>
			</g>
		</g>
	</g>
</g>
</svg>
