<?xml version="1.0" encoding="utf-8"?>
<!-- Generator: Adobe Illustrator 24.1.2, SVG Export Plug-In . SVG Version: 6.00 Build 0)  -->
<svg version="1.1" id="Capa_1" xmlns="http://www.w3.org/2000/svg" xmlns:xlink="http://www.w3.org/1999/xlink" x="0px" y="0px"
	 viewBox="0 0 600 600" style="enable-background:new 0 0 600 600;" xml:space="preserve">
<style type="text/css">
	.st0{fill:#FFFFFF;}
</style>
<g>
	<circle cx="298.32" cy="298.68" r="296.68"/>
	<path class="st0" d="M487.84,203.47c-4.55-17.02-17.95-30.42-34.97-34.97c-30.85-8.27-154.55-8.27-154.55-8.27
		s-123.7,0-154.55,8.27c-17.02,4.55-30.42,17.95-34.97,34.97c-8.27,30.85-8.27,95.21-8.27,95.21s0,64.36,8.27,95.21
		c4.55,17.02,17.95,30.42,34.97,34.97c30.85,8.27,154.55,8.27,154.55,8.27s123.7,0,154.55-8.27c17.02-4.55,30.42-17.95,34.97-34.97
		c8.27-30.85,8.27-95.21,8.27-95.21S496.11,234.32,487.84,203.47z M258.76,358.02V239.34l102.77,59.34L258.76,358.02z"/>
</g>
</svg>
